<svg width="24" height="24" viewBox="0 0 24 24" fill="none" xmlns="http://www.w3.org/2000/svg">
<path d="M21.3704 12C21.3704 10.7062 21.3821 9.42422 21.3095 8.13281C21.2368 6.63281 20.8946 5.30156 19.7978 4.20469C18.6985 3.10547 17.3696 2.76562 15.8696 2.69297C14.5759 2.62031 13.2939 2.63203 12.0025 2.63203C10.7087 2.63203 9.42667 2.62031 8.13527 2.69297C6.63527 2.76562 5.30402 3.10781 4.20714 4.20469C3.10792 5.3039 2.76808 6.63281 2.69542 8.13281C2.62277 9.42656 2.63449 10.7086 2.63449 12C2.63449 13.2914 2.62277 14.5758 2.69542 15.8672C2.76808 17.3672 3.11027 18.6984 4.20714 19.7953C5.30636 20.8945 6.63527 21.2344 8.13527 21.307C9.42902 21.3797 10.711 21.368 12.0025 21.368C13.2962 21.368 14.5782 21.3797 15.8696 21.307C17.3696 21.2344 18.7009 20.8922 19.7978 19.7953C20.897 18.6961 21.2368 17.3672 21.3095 15.8672C21.3845 14.5758 21.3704 13.2937 21.3704 12ZM19.3079 17.5266C19.1368 17.9531 18.9306 18.2719 18.6001 18.6C18.2696 18.9305 17.9532 19.1367 17.5267 19.3078C16.2939 19.7977 13.3665 19.6875 12.0001 19.6875C10.6337 19.6875 7.70402 19.7977 6.4712 19.3102C6.04464 19.1391 5.72589 18.9328 5.39777 18.6023C5.0673 18.2719 4.86105 17.9555 4.68995 17.5289C4.20246 16.2937 4.31261 13.3664 4.31261 12C4.31261 10.6336 4.20246 7.7039 4.68995 6.47109C4.86105 6.04453 5.0673 5.72578 5.39777 5.39765C5.72824 5.06953 6.04464 4.86094 6.4712 4.68984C7.70402 4.20234 10.6337 4.3125 12.0001 4.3125C13.3665 4.3125 16.2962 4.20234 17.529 4.68984C17.9556 4.86094 18.2743 5.06719 18.6025 5.39765C18.9329 5.72812 19.1392 6.04453 19.3103 6.47109C19.7978 7.7039 19.6876 10.6336 19.6876 12C19.6876 13.3664 19.7978 16.2937 19.3079 17.5266Z" fill="white"/>
<path d="M7.902 10.126H9.277V16H7.902V10.126ZM8.595 9.158C8.34567 9.158 8.13667 9.081 7.968 8.927C7.79933 8.76567 7.715 8.56767 7.715 8.333C7.715 8.09833 7.79933 7.904 7.968 7.75C8.13667 7.58867 8.34567 7.508 8.595 7.508C8.84433 7.508 9.05333 7.585 9.222 7.739C9.39067 7.88567 9.475 8.07267 9.475 8.3C9.475 8.542 9.39067 8.74733 9.222 8.916C9.06067 9.07733 8.85167 9.158 8.595 9.158ZM14.4147 10.06C15.1554 10.06 15.7494 10.2763 16.1967 10.709C16.644 11.1417 16.8677 11.7833 16.8677 12.634V16H15.4927V12.81C15.4927 12.2967 15.3717 11.9117 15.1297 11.655C14.8877 11.391 14.543 11.259 14.0957 11.259C13.5897 11.259 13.19 11.413 12.8967 11.721C12.6034 12.0217 12.4567 12.458 12.4567 13.03V16H11.0817V10.126H12.3907V10.885C12.618 10.6137 12.904 10.4083 13.2487 10.269C13.5934 10.1297 13.982 10.06 14.4147 10.06Z" fill="white"/>
</svg>
