<svg width="24" height="24" viewBox="0 0 24 24" fill="none" xmlns="http://www.w3.org/2000/svg">
<g clip-path="url(#clip0_3919_9)">
<path d="M12.5 17C12.1022 17 11.7206 17.158 11.4393 17.4393C11.158 17.7206 11 18.1022 11 18.5C11 18.8978 11.158 19.2794 11.4393 19.5607C11.7206 19.842 12.1022 20 12.5 20L17 20C18.5913 20 20.1174 19.3679 21.2426 18.2426C22.3679 17.1174 23 15.5913 23 14L23 12L23 12.208C23.0002 11.2143 22.7535 10.2362 22.2823 9.36138C21.811 8.48658 21.1299 7.74252 20.3 7.196C20.2002 7.13041 20.1002 7.06508 20 7C19.521 6.688 17.612 5.593 14.272 3.714C13.9315 3.52245 13.5298 3.47128 13.1522 3.57138C12.7745 3.67148 12.4509 3.91495 12.25 4.25C12.0359 4.60688 11.9471 5.02507 11.9978 5.43816C12.0486 5.85125 12.2359 6.23554 12.53 6.53L14 8" stroke="#005E65" stroke-width="2" stroke-linecap="round" stroke-linejoin="round"/>
<path d="M11.5 13.9998C11.1022 13.9998 10.7206 14.1579 10.4393 14.4392C10.158 14.7205 10 15.102 10 15.4998C10 15.8976 10.158 16.2792 10.4393 16.5605C10.7206 16.8418 11.1022 16.9998 11.5 16.9998L13 16.9998M14 7.99982L5.5 7.99982C5.10218 7.99982 4.72064 8.15785 4.43934 8.43916C4.15804 8.72046 4 9.10199 4 9.49982C4 9.89764 4.15804 10.2792 4.43934 10.5605C4.72064 10.8418 5.10218 10.9998 5.5 10.9998L12 10.9998L10.5 10.9998C10.303 10.9998 10.108 11.0386 9.92597 11.114C9.74399 11.1894 9.57863 11.2999 9.43934 11.4392C9.30005 11.5784 9.18956 11.7438 9.11418 11.9258C9.0388 12.1078 9 12.3028 9 12.4998C9 12.6968 9.0388 12.8919 9.11418 13.0738C9.18956 13.2558 9.30005 13.4212 9.43934 13.5605C9.57863 13.6998 9.74399 13.8103 9.92597 13.8856C10.108 13.961 10.303 13.9998 10.5 13.9998L12.5 13.9998" stroke="#005E65" stroke-width="2" stroke-linecap="round" stroke-linejoin="round"/>
</g>
<defs>
<clipPath id="clip0_3919_9">
<rect width="24" height="24" fill="white" transform="matrix(-4.37114e-08 1 1 4.37114e-08 0 0)"/>
</clipPath>
</defs>
</svg>
